<?xml version="1.0" encoding="UTF-8"?>
<!DOCTYPE svg PUBLIC "-//W3C//DTD SVG 1.1//EN" "http://www.w3.org/Graphics/SVG/1.1/DTD/svg11.dtd">
<!-- Creator: CorelDRAW -->
<svg xmlns="http://www.w3.org/2000/svg" xml:space="preserve" width="297mm" height="297mm" version="1.1" style="shape-rendering:geometricPrecision; text-rendering:geometricPrecision; image-rendering:optimizeQuality; fill-rule:evenodd; clip-rule:evenodd"
viewBox="0 0 29700 29700"
 xmlns:xlink="http://www.w3.org/1999/xlink"
 xmlns:xodm="http://www.corel.com/coreldraw/odm/2003">
 <defs>
  <style type="text/css">
   <![CDATA[
    .fil0 {fill:none}
    .fil5 {fill:black}
    .fil1 {fill:#007DC6}
    .fil2 {fill:#008ED4}
    .fil4 {fill:#EBEDED}
    .fil3 {fill:#FEFFFF}
   ]]>
  </style>
 </defs>
 <g id="Layer_x0020_1">
  <metadata id="CorelCorpID_0Corel-Layer"/>
  <rect class="fil0" x="-0.53" y="0.53" width="29700" height="29700"/>
  <g id="_3115554957120">
   <path class="fil1" d="M10368.66 21200.53l1109 302.24c391.95,111.97 737.41,206.04 1129.01,317.51l2242.8 614.97c157.91,0 433.72,-97.59 568.68,-136.95l3284.48 -949.25c157.09,-43.96 410.66,-136.34 557.1,-148.52 0,-655.05 239.73,-2546.42 282.91,-3421.29l422.78 -4798.38c16.25,-518.31 246.92,-2370.23 246.92,-2751.72l-10725.73 0c0,460.55 91.83,931.12 105.79,1375.89l388.21 4797.67c6.04,192.54 46.09,495.53 65.12,675.72l216.88 2746.47c6.16,446.94 106.05,909.3 106.05,1375.64z"/>
   <path class="fil2" d="M14872.13 12575.59c919.12,-31.18 1989.4,9.92 2941.48,-3.11 378.19,-5.18 283.95,-10.4 348.12,55.37 11.13,1510.08 217.67,1159.8 -759.87,1564.34l-2316.93 959.64 2840.16 0.86 -375.39 4126.35c-403.51,122.92 -2365.79,783.92 -2600.15,779.01 -33.58,40.38 60.08,34.98 -83.35,42.65l4.54 1276.22 3609.78 -1027.93c41.38,-334.67 815.85,-8782.2 775.73,-9049.07l-4379.63 0.68 -4.49 1274.99z"/>
   <path class="fil3" d="M14907.55 16520.59l1558.51 2.06c23.22,182.84 -85.35,1046.96 -115.33,1347.23 -17.84,178.72 -2.9,343.14 -76.1,418.04 -138.17,142.85 -1097.43,190.92 -1355.39,294.07 0,207.33 -71.66,1445.94 30.31,1476.06 234.36,4.91 2196.64,-656.09 2600.15,-779.01l375.39 -4126.35 -2840.16 -0.86 2316.93 -959.64c977.54,-404.54 771,-54.26 759.87,-1564.34l-3254.18 0 0 3892.74z"/>
   <path class="fil4" d="M14907.55 16520.59l0 -3892.74 3254.18 0c-64.17,-65.77 30.07,-60.55 -348.12,-55.37 -952.08,13.03 -2022.36,-28.07 -2941.48,3.11l-3456.54 -0.28 164.65 1308.31 3170.68 8.73 -3106.27 1371.71 175.8 1253.01 3087.1 3.52z"/>
   <path class="fil4" d="M14866.2 20100.7c143.43,-7.67 49.77,-2.27 83.35,-42.65 -101.97,-30.12 -30.31,-1268.73 -30.31,-1476.06l-1486.83 -306.23c-234.32,-84.64 171.87,82.71 -49.86,-21.92 -6.6,-3.12 -18.14,-10.63 -23.37,-13.32 -53.7,-27.63 -142.63,-867.66 -159.44,-987.61l-1315.71 -15.41 177.33 2100.84 2804.84 762.36z"/>
   <path class="fil5" d="M16331.32 7759.7c0,68.02 342.91,539.97 418.14,640.24 62.65,83.49 116.54,130 146.37,241.7l-529.23 0 0 670.28 1658.26 0c0,-784.05 64.36,-546.28 -242.1,-957.38 -93.17,-124.99 -180.4,-212.87 -251.85,-347.9l493.95 0 0 -740.83 -1693.54 0 0 493.89z"/>
   <path class="fil5" d="M14002.71 7759.7c0,69.4 502.72,737 599.79,881.94l-529.23 0 0 670.28 1622.97 0c0,-998.32 39.56,-508.66 -493.94,-1305.28l493.94 0 0 -740.83 -1693.53 0 0 493.89z"/>
   <polygon class="fil5" points="11638.81,9311.92 13367.63,9311.92 13367.63,8641.64 12415.02,8641.64 12415.02,7971.36 13367.63,7971.36 13367.63,7265.81 11638.81,7265.81 "/>
  </g>
 </g>
</svg>
