<?xml version="1.0" encoding="UTF-8"?>
<!DOCTYPE svg PUBLIC "-//W3C//DTD SVG 1.1//EN" "http://www.w3.org/Graphics/SVG/1.1/DTD/svg11.dtd">
<!-- Creator: CorelDRAW -->
<svg xmlns="http://www.w3.org/2000/svg" xml:space="preserve" width="297mm" height="297mm" version="1.1" style="shape-rendering:geometricPrecision; text-rendering:geometricPrecision; image-rendering:optimizeQuality; fill-rule:evenodd; clip-rule:evenodd"
viewBox="0 0 29700 29700"
 xmlns:xlink="http://www.w3.org/1999/xlink"
 xmlns:xodm="http://www.corel.com/coreldraw/odm/2003">
 <defs>
  <style type="text/css">
   <![CDATA[
    .fil0 {fill:none}
    .fil5 {fill:#231F20}
    .fil3 {fill:#ECECEC}
    .fil1 {fill:#F15931}
    .fil2 {fill:#F47833}
    .fil4 {fill:#FFFEFC}
   ]]>
  </style>
 </defs>
 <g id="Layer_x0020_1">
  <metadata id="CorelCorpID_0Corel-Layer"/>
  <rect class="fil0" x="-0.53" y="0.53" width="29700" height="29700"/>
  <g id="_3079763089808">
   <path class="fil1" d="M10462.55 21243.47c355.08,82.82 712.44,193.16 1077.09,297.48l2728.24 761.05c900.17,236.23 570.89,134.75 1684.15,-148.71 352.1,-89.65 752.37,-202.52 1103.81,-306l2215.8 -603.82c0,-405.33 231.18,-2718.92 284.2,-3419.63l247.02 -2751.31c80.18,-1033.57 259.62,-2455.45 313.41,-3425.65 26.66,-480.78 106.75,-913.18 106.75,-1410.08l-10747.09 0c0,356.04 209.34,2308.89 243.98,2754.35 72.02,926.23 176.78,1850.87 246.66,2751.66 72.03,928.54 149.52,1855.52 243.71,2754.61 48.33,461.27 89.38,911.21 111.97,1369.56l140.3 1376.49z"/>
   <path class="fil2" d="M14863.98 12495.33l3356.88 -1.14 -117.9 1347.6 -3227.41 -1c-149.39,1.5 -1791.04,-40.46 -1914.69,39.14 328.73,0 1679.95,-38.99 1891.55,25.12l0 1312.33 2375.52 -0.99c175.33,0 642.26,-31.42 744.25,43.96l-363.75 4093.16c-282.35,99.48 -2461.62,712.08 -2654.23,709.65 -59.66,63.89 4.07,36.17 -126.38,50.3 66.09,228.41 24.59,1076.8 24.59,1396.23l3560.2 -978.77 836.26 -9384.62 -4399.4 -0.21 14.51 1349.24z"/>
   <path class="fil3" d="M11824.57 16557.6l3050.98 9.65 0 -1306.9 3096.63 0c-101.99,-75.38 -568.92,-43.96 -744.25,-43.96l-2375.52 0.99 -1776.24 -3.64 -115.31 -1333.81c123.65,-79.6 1765.3,-37.64 1914.69,-39.14l-11.57 -1345.46 -3381.14 -1c47.07,669.1 119.23,1342.02 177.7,2011.47 42.14,482.48 205.65,1644.6 164.03,2051.8z"/>
   <path class="fil4" d="M14875.55 16567.25l1601.94 2.53c52.24,213.24 -105.14,1428.73 -129.75,1742.34l-1470.46 398.04 -1.73 1333.86c63.65,28.62 -48.52,52.14 78.65,19.14 192.61,2.43 2371.88,-610.17 2654.23,-709.65l363.75 -4093.16 -3096.63 0 0 1306.9z"/>
   <path class="fil3" d="M14827.82 20113.46c130.45,-14.13 66.72,13.59 126.38,-50.3 -127.17,33 -15,9.48 -78.65,-19.14l1.73 -1333.86 -1524.94 -396.24c-17.27,-223.02 -53.05,-907.23 -118.09,-1074.67l47.21 0c-452.65,0 -905.3,0 -1357.95,0 -28.17,179.07 135.88,1975.9 186.54,2108.04l2717.77 766.17z"/>
   <polygon class="fil4" points="14875.55,13840.79 18102.96,13841.79 18220.86,12494.19 14863.98,12495.33 "/>
   <path class="fil5" d="M14937.57 9319.58l704.72 0 0 -952.5c105.44,121.45 391.15,551.45 422.84,670.28l493.31 -670.28 0 952.5 704.72 0 0 -2046.11c-859.2,0 -690.43,-75.58 -922.79,310.84 -78.33,130.25 -135.09,227.6 -204.77,359.44 -107.02,-71.75 -395.99,-554.91 -422.84,-670.28l-775.19 0 0 2046.11z"/>
   <polygon class="fil5" points="10462.55,9319.58 11167.28,9319.58 11167.28,8649.3 11766.29,8649.3 11766.29,9319.58 12471.02,9319.58 12471.02,7273.47 11766.29,7273.47 11766.29,7943.75 11167.28,7943.75 11167.28,7273.47 10462.55,7273.47 "/>
   <path class="fil2" d="M14877.28 18710.16l1470.46 -398.04c24.61,-313.61 181.99,-1529.1 129.75,-1742.34l-1601.94 -2.53 -3050.98 -9.65 3027.84 64.48c0,412.05 -51.1,1790.06 24.87,2088.08z"/>
   <path class="fil1" d="M14852.41 15217.38l0 -1312.33c-211.6,-64.11 -1562.82,-25.12 -1891.55,-25.12l115.31 1333.81 1776.24 3.64z"/>
   <polygon class="fil5" points="12752.91,7943.75 13351.93,7943.75 13351.93,9319.58 14056.66,9319.58 14056.66,7943.75 14655.67,7943.75 14655.67,7273.47 12752.91,7273.47 "/>
   <path class="fil5" d="M17580.29 9319.58l1691.35 0 0 -599.72c0,-81.29 -24.52,-105.84 -105.71,-105.84l-880.91 0 0 -1340.55 -704.73 0 0 2046.11z"/>
  </g>
 </g>
</svg>
