<?xml version="1.0" encoding="UTF-8"?>
<!DOCTYPE svg PUBLIC "-//W3C//DTD SVG 1.1//EN" "http://www.w3.org/Graphics/SVG/1.1/DTD/svg11.dtd">
<!-- Creator: CorelDRAW -->
<svg xmlns="http://www.w3.org/2000/svg" xml:space="preserve" width="297mm" height="297mm" version="1.1" style="shape-rendering:geometricPrecision; text-rendering:geometricPrecision; image-rendering:optimizeQuality; fill-rule:evenodd; clip-rule:evenodd"
viewBox="0 0 29700 29700"
 xmlns:xlink="http://www.w3.org/1999/xlink"
 xmlns:xodm="http://www.corel.com/coreldraw/odm/2003">
 <defs>
  <style type="text/css">
   <![CDATA[
    .fil0 {fill:none}
    .fil5 {fill:black}
    .fil4 {fill:#ECECEC}
    .fil1 {fill:#F58233}
    .fil2 {fill:#F99C34}
    .fil3 {fill:#FFFEFD}
   ]]>
  </style>
 </defs>
 <g id="Layer_x0020_1">
  <metadata id="CorelCorpID_0Corel-Layer"/>
  <rect class="fil0" x="-0.53" y="0.53" width="29700" height="29700"/>
  <g id="_3079756854496">
   <path class="fil1" d="M10423.08 21235.81c150.1,12.49 380.08,102.3 528.85,141.31 439.19,115.14 3723.18,1058.13 3879.91,1058.13 137.8,0 900.43,-231.39 1093.56,-282.02 188.14,-49.33 346.01,-104.6 549.86,-155.59 199.62,-49.92 358.01,-92.24 555.83,-149.6 374.12,-108.49 722.86,-214.22 1101.86,-309.01 385.57,-96.42 730.95,-215.45 1107.64,-303.22l743.35 -8252.32c32.61,-418.99 76.84,-951.7 128.55,-1353.09 33.31,-258.6 23.04,-429.2 50.5,-690.32 21.15,-201.12 65.16,-485.78 65.16,-710.94l-10757.36 0c0,491.38 86.08,910.75 106.06,1375.58l120.51 1361.14c95.85,668.23 154.71,2091.4 241.67,2756.89l130.32 1351.32c34.82,628.32 160.46,1538.52 177.44,2080.29 17.26,550.93 176.29,1382.06 176.29,2081.45z"/>
   <path class="fil2" d="M14841.45 21499.14l3489.94 -964.48c61.47,-34.22 26.2,-7.95 70.82,-53.11l840.07 -9341.82 -4401.03 -0.88 0.2 10360.29z"/>
   <path class="fil3" d="M15083.63 13263.05l5.05 3284.38 1710.2 -97.13 -149.23 1778.88c-343.87,197.69 -1164.38,231.61 -1546.18,423.56l-17.16 1378.43c142.69,-9.44 2435.14,-626.53 2497.57,-705.35 51.61,-113.93 383.12,-3774.53 376.74,-4112.26l-1727.46 -2.08c9.27,-271.53 -5.32,-1209.35 85.98,-1378.04 156.59,-80.62 1302.99,-52.94 1584.97,-56.74 193.71,-2.6 189.31,12.41 211.5,-157.51l95.97 -1126.09 -3124.57 -6.24 -3.38 776.19z"/>
   <polygon class="fil4" points="13613.85,18354.71 12826.79,18138.8 12759.96,17380.26 11894.72,17231.53 12080.9,19354.1 14549.78,20033.92 14558.15,12486.69 13385.76,12486.69 "/>
   <path class="fil5" d="M15114 7724.42c0,163.56 294.44,500.91 416.36,677.16 59.43,85.93 123.28,147.61 147.96,240.06l-529.05 0 0 670.28 1657.69 0c0,-759.64 84.23,-550.07 -368.41,-1113.18 -79.4,-98.77 -93.87,-74.1 -125.37,-192.1l493.78 0 0 -740.83 -1692.96 0 0 458.61z"/>
   <polygon class="fil5" points="13844.27,8606.36 13597.38,8606.36 13597.38,8359.42 12891.98,8359.42 12891.98,9311.92 14549.68,9311.92 14549.68,7265.81 13844.27,7265.81 "/>
  </g>
 </g>
</svg>
