<?xml version="1.0" encoding="UTF-8"?>
<!DOCTYPE svg PUBLIC "-//W3C//DTD SVG 1.1//EN" "http://www.w3.org/Graphics/SVG/1.1/DTD/svg11.dtd">
<!-- Creator: CorelDRAW -->
<svg xmlns="http://www.w3.org/2000/svg" xml:space="preserve" width="297mm" height="297mm" version="1.1" style="shape-rendering:geometricPrecision; text-rendering:geometricPrecision; image-rendering:optimizeQuality; fill-rule:evenodd; clip-rule:evenodd"
viewBox="0 0 29700 29700"
 xmlns:xlink="http://www.w3.org/1999/xlink"
 xmlns:xodm="http://www.corel.com/coreldraw/odm/2003">
 <defs>
  <style type="text/css">
   <![CDATA[
    .fil0 {fill:none}
    .fil1 {fill:#001E36;fill-rule:nonzero}
    .fil2 {fill:#31A8FF;fill-rule:nonzero}
   ]]>
  </style>
 </defs>
 <g id="Layer_x0020_1">
  <metadata id="CorelCorpID_0Corel-Layer"/>
  <rect class="fil0" x="-0.53" y="0.53" width="29700" height="29700"/>
  <g id="_3115864377136">
   <g id="Layer_2_1_">
    <g id="Surfaces">
     <g id="Photo_Surface">
      <g id="Outline_no_shadow">
       <path class="fil1" d="M9843.59 7292.5l10011.76 0c1516.71,0 2745.39,1228.69 2745.39,2745.39l0 9625.28c0,1516.72 -1228.69,2745.39 -2745.39,2745.39l-10011.76 0c-1516.71,0 -2745.39,-1228.69 -2745.39,-2745.39l0 -9625.28c0,-1516.72 1228.68,-2745.39 2745.39,-2745.39z"/>
      </g>
     </g>
    </g>
    <g id="Outlined_Mnemonics_Logos">
     <g id="Ps">
      <path class="fil2" d="M10587.37 17891.25l0 -6646.56c0,-43.75 18.23,-69.27 65.63,-69.27 109.38,0 211.47,0 360.95,-7.29 156.77,-7.29 317.2,-7.29 492.21,-14.58 175,-7.29 360.95,-7.29 561.47,-14.58 200.53,-7.28 393.76,-7.28 587,-7.28 528.67,0 969.82,65.63 1330.77,200.52 324.49,109.39 619.81,291.68 864.08,528.67 207.82,207.81 368.24,459.39 470.33,736.48 98.44,269.8 149.48,550.54 149.48,838.56 0,554.19 -127.6,1013.57 -386.47,1374.52 -258.86,360.96 -619.81,634.4 -1039.09,787.53 -437.51,160.42 -922.43,218.75 -1454.73,218.75 -156.78,0 -258.86,0 -324.49,-7.29 -65.64,-7.29 -156.78,-7.29 -277.09,-7.29l0 2074.55c7.29,43.75 -25.52,83.85 -69.27,91.15 -7.29,0 -14.58,0 -25.52,0l-1228.7 -0.03c-51.04,7.29 -76.56,-18.23 -76.56,-76.56zm1407.33 -5468.92l0 2169.33c91.15,7.29 175,14.58 251.56,14.58l342.72 0.01c251.57,0 503.15,-40.1 743.77,-116.67 207.82,-58.33 386.48,-182.3 528.67,-342.72 134.91,-160.43 200.53,-382.82 200.53,-663.56 7.29,-200.53 -43.75,-401.05 -149.49,-576.06 -109.38,-167.71 -266.16,-295.31 -452.09,-368.24 -240.64,-98.44 -495.84,-134.9 -762,-127.6 -167.72,0 -317.2,0 -437.52,7.29 -131.25,-10.94 -222.4,-3.65 -266.15,3.64l0 0z"/>
      <path class="fil2" d="M19501.68 14197.91c-193.23,-102.08 -401.05,-175 -619.8,-218.75 -240.64,-51.04 -477.62,-83.85 -721.91,-83.85 -127.6,-7.29 -266.16,14.57 -386.47,43.75 -83.85,18.23 -156.77,65.63 -200.52,127.6 -32.81,51.04 -51.04,116.67 -51.04,175 0,58.33 25.52,116.68 65.63,167.72 58.33,69.27 134.91,127.6 218.76,175 149.48,76.57 302.6,149.49 459.39,211.47 350.01,116.68 685.44,277.09 995.34,470.32 211.47,134.91 386.47,317.2 510.44,535.96 102.08,207.82 156.77,433.86 149.48,663.56 7.29,302.61 -83.85,608.87 -251.57,860.45 -182.29,258.85 -433.86,459.39 -721.9,576.05 -317.2,134.91 -703.67,207.82 -1170.34,207.82 -295.32,0 -587,-25.52 -878.68,-83.85 -226.05,-40.1 -452.09,-109.39 -659.92,-207.82 -43.75,-25.52 -76.56,-69.27 -69.27,-123.96l0 -1122.96c0,-18.23 7.29,-43.75 25.52,-58.33 18.23,-14.58 40.1,-7.29 58.33,7.29 251.57,149.49 517.72,251.57 802.1,317.2 244.28,65.64 503.15,98.45 762,98.45 244.28,0 419.29,-32.81 535.96,-91.16 102.08,-43.75 175.01,-156.77 175.01,-269.8 0,-91.15 -51.05,-175 -156.78,-258.85 -102.08,-83.85 -317.2,-182.3 -634.4,-302.61 -328.14,-116.67 -634.4,-269.8 -918.78,-466.68 -200.52,-142.2 -368.24,-328.15 -492.2,-550.54 -102.08,-207.81 -156.78,-433.86 -149.49,-659.92 0,-277.09 76.57,-543.25 218.76,-780.23 160.43,-258.86 401.05,-466.69 678.15,-594.29 302.61,-156.78 685.44,-226.05 1144.82,-226.05 266.16,0 535.96,18.23 802.11,58.33 193.23,25.52 382.82,76.56 554.18,149.49 25.52,7.29 51.05,32.81 65.64,58.33 7.29,25.52 14.58,51.04 14.58,76.56l0 1053.68c0,25.52 -14.58,51.04 -32.81,65.64 -61.97,14.56 -94.79,14.56 -120.32,-0.02z"/>
     </g>
    </g>
   </g>
  </g>
 </g>
</svg>
